<svg width="19" height="18" viewBox="0 0 19 18" fill="none" xmlns="http://www.w3.org/2000/svg">
<path d="M17.703 7.18971H16.5707C16.409 6.6261 16.1664 6.06249 15.9238 5.5794L16.7325 4.77425C16.9751 4.5327 16.9751 4.21064 16.7325 3.9691L14.9533 2.19776C14.7107 1.95621 14.3872 1.95621 14.1445 2.19776L13.3358 3.00291C12.8506 2.68085 12.2845 2.51982 11.7183 2.35879V1.23158C11.7183 0.909515 11.4757 0.667969 11.1522 0.667969H8.64516C8.32167 0.667969 8.07905 0.909515 8.07905 1.23158V2.35879C7.51294 2.51982 6.94683 2.76137 6.46159 3.00291L5.65285 2.19776C5.41024 1.95621 5.08674 1.95621 4.84412 2.19776L3.06491 3.9691C2.82229 4.21064 2.82229 4.5327 3.06491 4.77425L3.87364 5.5794C3.55015 6.06249 3.3884 6.6261 3.22666 7.18971H2.09443C1.77094 7.18971 1.52832 7.43126 1.52832 7.75332V10.2493C1.52832 10.5714 1.77094 10.8129 2.09443 10.8129H3.22666C3.3884 11.3765 3.63102 11.9401 3.87364 12.4232L3.06491 13.2284C2.82229 13.4699 2.82229 13.792 3.06491 14.0335L4.84412 15.8048C5.08674 16.0464 5.41024 16.0464 5.65285 15.8048L6.46159 14.9997C6.94683 15.3218 7.51294 15.4828 8.07905 15.6438V16.771C8.07905 17.0931 8.32167 17.3346 8.64516 17.3346H11.1522C11.4757 17.3346 11.7183 17.0931 11.7183 16.771V15.6438C12.2845 15.4828 12.8506 15.2412 13.3358 14.9997L14.1445 15.8048C14.3872 16.0464 14.7107 16.0464 14.9533 15.8048L16.7325 14.0335C16.9751 13.792 16.9751 13.4699 16.7325 13.2284L15.9238 12.4232C16.2472 11.9401 16.409 11.3765 16.5707 10.8129H17.703C18.0265 10.8129 18.2691 10.5714 18.2691 10.2493V7.75332C18.2691 7.43126 18.0265 7.18971 17.703 7.18971ZM9.93914 11.9401C8.32167 11.9401 7.0277 10.6519 7.0277 9.04156C7.0277 7.43125 8.32167 6.14301 9.93914 6.14301C11.5566 6.14301 12.8506 7.43125 12.8506 9.04156C12.8506 10.6519 11.5566 11.9401 9.93914 11.9401Z" stroke="currentColor" stroke-width="1.3" stroke-miterlimit="10" stroke-linecap="round" stroke-linejoin="round"/>
</svg>
